<mxfile host="app.diagrams.net" agent="Mozilla/5.0 (Windows NT 10.0; Win64; x64) AppleWebKit/537.36 (KHTML, like Gecko) Chrome/131.0.0.0 Safari/537.36" version="24.8.6">
  <diagram name="Seite-1" id="4A2YwwTTmII6rBf1Q2FR">
    <mxGraphModel dx="2006" dy="1180" grid="1" gridSize="10" guides="1" tooltips="1" connect="1" arrows="1" fold="1" page="1" pageScale="1" pageWidth="827" pageHeight="1169" math="0" shadow="0">
      <root>
        <mxCell id="0" />
        <mxCell id="1" parent="0" />
        <mxCell id="6ftq6j65stskF8XGJ8QF-1" value="" style="ellipse;html=1;shape=endState;fillColor=strokeColor;strokeWidth=0;" parent="1" vertex="1">
          <mxGeometry x="50" y="80" width="30" height="30" as="geometry" />
        </mxCell>
        <mxCell id="6ftq6j65stskF8XGJ8QF-2" value="Player changes from&amp;nbsp;&lt;div&gt;menu to game&lt;/div&gt;" style="text;html=1;align=center;verticalAlign=middle;resizable=0;points=[];autosize=1;strokeColor=none;fillColor=none;" parent="1" vertex="1">
          <mxGeometry y="40" width="140" height="40" as="geometry" />
        </mxCell>
        <mxCell id="6ftq6j65stskF8XGJ8QF-3" value="Scene 1&lt;div&gt;(Home)&lt;/div&gt;" style="shape=folder;align=center;verticalAlign=middle;fontStyle=0;tabWidth=100;tabHeight=30;tabPosition=left;html=1;boundedLbl=1;labelInHeader=1;rounded=1;absoluteArcSize=1;arcSize=10;whiteSpace=wrap;" parent="1" vertex="1">
          <mxGeometry x="140" y="20" width="670" height="760" as="geometry" />
        </mxCell>
        <mxCell id="6ftq6j65stskF8XGJ8QF-4" style="edgeStyle=orthogonalEdgeStyle;rounded=0;orthogonalLoop=1;jettySize=auto;html=1;" parent="1" edge="1">
          <mxGeometry relative="1" as="geometry">
            <mxPoint x="80" y="95" as="sourcePoint" />
            <mxPoint x="140" y="95.24" as="targetPoint" />
          </mxGeometry>
        </mxCell>
        <mxCell id="UIB05lLIntMKHFcyhaDu-1" value="" style="ellipse;html=1;shape=endState;fillColor=strokeColor;strokeWidth=0;" parent="1" vertex="1">
          <mxGeometry x="205" y="70" width="30" height="30" as="geometry" />
        </mxCell>
        <mxCell id="UIB05lLIntMKHFcyhaDu-11" style="edgeStyle=orthogonalEdgeStyle;rounded=0;orthogonalLoop=1;jettySize=auto;html=1;" parent="1" source="UIB05lLIntMKHFcyhaDu-2" edge="1">
          <mxGeometry relative="1" as="geometry">
            <mxPoint x="310" y="300" as="targetPoint" />
          </mxGeometry>
        </mxCell>
        <mxCell id="UIB05lLIntMKHFcyhaDu-2" value="Walk around inside the house" style="rounded=1;whiteSpace=wrap;html=1;" parent="1" vertex="1">
          <mxGeometry x="160" y="140" width="120" height="60" as="geometry" />
        </mxCell>
        <mxCell id="UIB05lLIntMKHFcyhaDu-3" style="edgeStyle=orthogonalEdgeStyle;rounded=0;orthogonalLoop=1;jettySize=auto;html=1;exitX=0.5;exitY=1;exitDx=0;exitDy=0;entryX=0.5;entryY=0;entryDx=0;entryDy=0;" parent="1" source="UIB05lLIntMKHFcyhaDu-1" edge="1" target="UIB05lLIntMKHFcyhaDu-2">
          <mxGeometry relative="1" as="geometry">
            <mxPoint x="120.0003398874988" y="120" as="sourcePoint" />
            <mxPoint x="120.0003398874988" y="140" as="targetPoint" />
          </mxGeometry>
        </mxCell>
        <mxCell id="UIB05lLIntMKHFcyhaDu-4" value="Wake up on Couche" style="text;html=1;align=center;verticalAlign=middle;whiteSpace=wrap;rounded=0;" parent="1" vertex="1">
          <mxGeometry x="230" y="100" width="70" height="40" as="geometry" />
        </mxCell>
        <mxCell id="jhFWgw9EQ6ii1iLFkqNG-3" style="edgeStyle=orthogonalEdgeStyle;rounded=0;orthogonalLoop=1;jettySize=auto;html=1;" edge="1" parent="1" source="UIB05lLIntMKHFcyhaDu-5" target="UIB05lLIntMKHFcyhaDu-38">
          <mxGeometry relative="1" as="geometry" />
        </mxCell>
        <mxCell id="UIB05lLIntMKHFcyhaDu-5" value="Take clothes from bedroom" style="rounded=1;whiteSpace=wrap;html=1;" parent="1" vertex="1">
          <mxGeometry x="460" y="660" width="120" height="60" as="geometry" />
        </mxCell>
        <mxCell id="UIB05lLIntMKHFcyhaDu-6" value="" style="ellipse;html=1;shape=endState;fillColor=strokeColor;" parent="1" vertex="1">
          <mxGeometry x="175" y="670" width="30" height="30" as="geometry" />
        </mxCell>
        <mxCell id="UIB05lLIntMKHFcyhaDu-7" value="Switch to Scene 2" style="text;html=1;align=center;verticalAlign=middle;whiteSpace=wrap;rounded=0;" parent="1" vertex="1">
          <mxGeometry x="160" y="630" width="60" height="30" as="geometry" />
        </mxCell>
        <mxCell id="UIB05lLIntMKHFcyhaDu-12" value="Cleanup kitchen" style="shape=folder;align=center;verticalAlign=middle;fontStyle=0;tabWidth=100;tabHeight=30;tabPosition=left;html=1;boundedLbl=1;labelInHeader=1;rounded=1;absoluteArcSize=1;arcSize=10;whiteSpace=wrap;" parent="1" vertex="1">
          <mxGeometry x="280" y="300" width="500" height="300" as="geometry" />
        </mxCell>
        <mxCell id="UIB05lLIntMKHFcyhaDu-15" style="edgeStyle=orthogonalEdgeStyle;rounded=0;orthogonalLoop=1;jettySize=auto;html=1;entryX=0.5;entryY=0;entryDx=0;entryDy=0;" parent="1" source="UIB05lLIntMKHFcyhaDu-13" target="UIB05lLIntMKHFcyhaDu-14" edge="1">
          <mxGeometry relative="1" as="geometry" />
        </mxCell>
        <mxCell id="UIB05lLIntMKHFcyhaDu-17" style="edgeStyle=orthogonalEdgeStyle;rounded=0;orthogonalLoop=1;jettySize=auto;html=1;" parent="1" source="UIB05lLIntMKHFcyhaDu-13" target="UIB05lLIntMKHFcyhaDu-16" edge="1">
          <mxGeometry relative="1" as="geometry" />
        </mxCell>
        <mxCell id="UIB05lLIntMKHFcyhaDu-19" style="edgeStyle=orthogonalEdgeStyle;rounded=0;orthogonalLoop=1;jettySize=auto;html=1;" parent="1" source="UIB05lLIntMKHFcyhaDu-13" target="UIB05lLIntMKHFcyhaDu-18" edge="1">
          <mxGeometry relative="1" as="geometry" />
        </mxCell>
        <mxCell id="UIB05lLIntMKHFcyhaDu-13" value="" style="ellipse;html=1;shape=endState;fillColor=strokeColor;strokeWidth=0;" parent="1" vertex="1">
          <mxGeometry x="290" y="340" width="30" height="30" as="geometry" />
        </mxCell>
        <mxCell id="UIB05lLIntMKHFcyhaDu-21" style="edgeStyle=orthogonalEdgeStyle;rounded=0;orthogonalLoop=1;jettySize=auto;html=1;entryX=0;entryY=0.5;entryDx=0;entryDy=0;" parent="1" source="UIB05lLIntMKHFcyhaDu-14" target="UIB05lLIntMKHFcyhaDu-20" edge="1">
          <mxGeometry relative="1" as="geometry">
            <Array as="points">
              <mxPoint x="350" y="565" />
            </Array>
          </mxGeometry>
        </mxCell>
        <mxCell id="UIB05lLIntMKHFcyhaDu-14" value="Cleanup plates" style="rounded=1;whiteSpace=wrap;html=1;" parent="1" vertex="1">
          <mxGeometry x="290" y="420" width="120" height="60" as="geometry" />
        </mxCell>
        <mxCell id="UIB05lLIntMKHFcyhaDu-22" style="edgeStyle=orthogonalEdgeStyle;rounded=0;orthogonalLoop=1;jettySize=auto;html=1;entryX=0;entryY=0.5;entryDx=0;entryDy=0;" parent="1" source="UIB05lLIntMKHFcyhaDu-16" target="UIB05lLIntMKHFcyhaDu-20" edge="1">
          <mxGeometry relative="1" as="geometry">
            <Array as="points">
              <mxPoint x="480" y="565" />
            </Array>
          </mxGeometry>
        </mxCell>
        <mxCell id="UIB05lLIntMKHFcyhaDu-16" value="Open a window" style="rounded=1;whiteSpace=wrap;html=1;" parent="1" vertex="1">
          <mxGeometry x="420" y="420" width="120" height="60" as="geometry" />
        </mxCell>
        <mxCell id="UIB05lLIntMKHFcyhaDu-23" style="edgeStyle=orthogonalEdgeStyle;rounded=0;orthogonalLoop=1;jettySize=auto;html=1;entryX=0;entryY=0.5;entryDx=0;entryDy=0;" parent="1" source="UIB05lLIntMKHFcyhaDu-18" target="UIB05lLIntMKHFcyhaDu-20" edge="1">
          <mxGeometry relative="1" as="geometry">
            <Array as="points">
              <mxPoint x="610" y="565" />
            </Array>
          </mxGeometry>
        </mxCell>
        <mxCell id="UIB05lLIntMKHFcyhaDu-18" value="wipe surface" style="rounded=1;whiteSpace=wrap;html=1;" parent="1" vertex="1">
          <mxGeometry x="550" y="420" width="120" height="60" as="geometry" />
        </mxCell>
        <mxCell id="UIB05lLIntMKHFcyhaDu-20" value="" style="ellipse;html=1;shape=endState;fillColor=strokeColor;" parent="1" vertex="1">
          <mxGeometry x="710" y="550" width="30" height="30" as="geometry" />
        </mxCell>
        <mxCell id="UIB05lLIntMKHFcyhaDu-24" value="If atleast two tasks are done, exit this state" style="text;html=1;align=center;verticalAlign=middle;whiteSpace=wrap;rounded=0;" parent="1" vertex="1">
          <mxGeometry x="630" y="510" width="90" height="50" as="geometry" />
        </mxCell>
        <mxCell id="UIB05lLIntMKHFcyhaDu-28" value="Got to your kitchen" style="text;html=1;align=center;verticalAlign=middle;whiteSpace=wrap;rounded=0;" parent="1" vertex="1">
          <mxGeometry x="315" y="200" width="70" height="40" as="geometry" />
        </mxCell>
        <mxCell id="UIB05lLIntMKHFcyhaDu-38" value="Click on door" style="rounded=1;whiteSpace=wrap;html=1;" parent="1" vertex="1">
          <mxGeometry x="250" y="660" width="120" height="60" as="geometry" />
        </mxCell>
        <mxCell id="UIB05lLIntMKHFcyhaDu-40" style="edgeStyle=orthogonalEdgeStyle;rounded=0;orthogonalLoop=1;jettySize=auto;html=1;entryX=1.029;entryY=0.657;entryDx=0;entryDy=0;entryPerimeter=0;" parent="1" source="UIB05lLIntMKHFcyhaDu-38" target="UIB05lLIntMKHFcyhaDu-6" edge="1">
          <mxGeometry relative="1" as="geometry" />
        </mxCell>
        <mxCell id="jhFWgw9EQ6ii1iLFkqNG-2" style="edgeStyle=orthogonalEdgeStyle;rounded=0;orthogonalLoop=1;jettySize=auto;html=1;entryX=1.007;entryY=0.634;entryDx=0;entryDy=0;entryPerimeter=0;exitX=0.908;exitY=0.998;exitDx=0;exitDy=0;exitPerimeter=0;" edge="1" parent="1" source="UIB05lLIntMKHFcyhaDu-12" target="UIB05lLIntMKHFcyhaDu-5">
          <mxGeometry relative="1" as="geometry">
            <mxPoint x="749" y="610" as="sourcePoint" />
            <mxPoint x="720" y="690" as="targetPoint" />
          </mxGeometry>
        </mxCell>
      </root>
    </mxGraphModel>
  </diagram>
</mxfile>
